<?xml version="1.0" encoding="UTF-8" standalone="no"?><!DOCTYPE svg PUBLIC "-//W3C//DTD SVG 1.1//EN" "http://www.w3.org/Graphics/SVG/1.1/DTD/svg11.dtd"><svg width="100%" height="100%" viewBox="0 0 82 25" version="1.1" xmlns="http://www.w3.org/2000/svg" xmlns:xlink="http://www.w3.org/1999/xlink" xml:space="preserve" xmlns:serif="http://www.serif.com/" style="fill-rule:evenodd;clip-rule:evenodd;stroke-linejoin:round;stroke-miterlimit:2;"><path d="M57.711,17.033l5.689,0l0,-1.778l-5.689,0l0,-1.778l5.511,0l0,-9.244l-12.8,-0l0,9.244l5.511,0l0,1.778l-5.689,0l0,1.778l5.689,0l0,1.956l-6.133,0l0,1.778l14.133,0l0,-1.778l-6.133,0l0,-1.956l-0.089,0Zm0.178,-11.022l3.733,0l0,1.956l-3.733,0l0,-1.956Zm0,3.733l3.733,0l0,1.867l-3.733,0l0,-1.867Zm-1.778,1.867l-3.733,0l0,-1.867l3.733,0l0,1.867Zm0,-3.644l-3.733,0l0,-1.956l3.733,0l0,1.956Zm-45.778,3.378l9.333,0l0,2.133l-9.333,0l0,-2.133Z" style="fill:#ff6a00;fill-rule:nonzero;"/><path d="M24.289,3.7l-6.133,0l1.511,2.133l4.444,1.422c0.8,0.267 1.333,1.067 1.333,1.867l0,6.756c0,0.8 -0.533,1.6 -1.333,1.867l-4.444,1.422l-1.511,2.133l6.133,0c2.578,0 4.622,-2.044 4.622,-4.622l0,-8.267c0,-2.578 -2.044,-4.711 -4.622,-4.711Zm-18.489,14.044c-0.8,-0.267 -1.333,-1.067 -1.333,-1.867l0,-6.756c0,-0.8 0.533,-1.6 1.333,-1.867l4.444,-1.422l1.511,-2.133l-6.133,0c-2.578,0 -4.622,2.133 -4.622,4.711l0,8.178c0,2.578 2.044,4.622 4.622,4.622l6.133,0l-1.511,-2.133l-4.444,-1.333Zm38.489,-9.778l-4.533,0l0,9.333l4.533,0l0,-9.333Zm-1.867,7.467l-0.978,0l0,-5.689l0.978,0l0,5.689Zm-9.333,5.333l1.778,0l0,-14.756l1.867,0l-1.067,4.889l0,1.778l1.067,0l0,3.911c0,0.267 -0.178,0.444 -0.444,0.444l-0.444,0l0,1.778l0.889,0c0.978,0 1.778,-0.8 1.778,-1.778l0,-6.222l-1.067,0l1.067,-4.889l0,-1.778l-5.422,0l0,16.622Z" style="fill:#ff6a00;fill-rule:nonzero;"/><path d="M39.311,6.011l6.133,0l0,11.467c0,0.8 -0.622,1.511 -1.511,1.511l-1.333,0l0,1.778l1.867,0c1.511,0 2.844,-1.244 2.844,-2.844l0,-11.911l0.622,0l0,-1.778l-8.622,0l0,1.778Zm27.022,-1.689l12.8,0l0,1.778l-12.8,0l0,-1.778Zm13.511,8.444l0,-1.778l-14.133,0l0,1.778l3.556,0l-2.844,6.222l0,1.778l12,0c0.533,0 0.889,-0.444 0.889,-0.889c0,-0.178 0,-0.267 -0.089,-0.356l-1.511,-3.378l-1.956,0l1.333,2.844l-8.622,0l2.844,-6.222l8.533,0Z" style="fill:#ff6a00;fill-rule:nonzero;"/></svg>