<?xml version="1.0" encoding="UTF-8" standalone="no"?><!DOCTYPE svg PUBLIC "-//W3C//DTD SVG 1.1//EN"
        "http://www.w3.org/Graphics/SVG/1.1/DTD/svg11.dtd">
<svg width="100%" height="100%" viewBox="0 0 304 64" version="1.1" xmlns="http://www.w3.org/2000/svg"
     xmlns:xlink="http://www.w3.org/1999/xlink" xml:space="preserve" xmlns:serif="http://www.serif.com/"
     style="fill-rule:evenodd;clip-rule:evenodd;stroke-linejoin:round;stroke-miterlimit:2;"><path d="M63.328,11.952c-0.677,-0.331 -0.971,0.301 -1.365,0.624c-0.136,0.104 -0.251,0.24 -0.365,0.363c-0.992,1.059 -2.149,1.752 -3.661,1.669c-2.211,-0.123 -4.099,0.571 -5.768,2.261c-0.355,-2.085 -1.533,-3.328 -3.325,-4.128c-0.939,-0.416 -1.888,-0.829 -2.547,-1.733c-0.459,-0.643 -0.584,-1.36 -0.813,-2.064c-0.147,-0.427 -0.293,-0.861 -0.781,-0.933c-0.533,-0.083 -0.741,0.363 -0.949,0.736c-0.835,1.525 -1.157,3.205 -1.125,4.907c0.072,3.829 1.688,6.88 4.901,9.048c0.365,0.248 0.459,0.499 0.344,0.861c-0.219,0.747 -0.48,1.472 -0.709,2.221c-0.147,0.477 -0.365,0.579 -0.877,0.373c-1.73,-0.743 -3.301,-1.812 -4.629,-3.147c-2.285,-2.208 -4.349,-4.645 -6.925,-6.555c-0.597,-0.441 -1.21,-0.86 -1.837,-1.256c-2.627,-2.552 0.347,-4.648 1.035,-4.896c0.72,-0.261 0.248,-1.152 -2.077,-1.141c-2.325,0.011 -4.453,0.787 -7.165,1.824c-0.403,0.154 -0.818,0.277 -1.24,0.365c-2.534,-0.478 -5.126,-0.569 -7.688,-0.272c-5.027,0.56 -9.04,2.939 -11.992,6.995c-3.547,4.875 -4.381,10.416 -3.36,16.192c1.075,6.091 4.184,11.133 8.96,15.075c4.955,4.088 10.659,6.091 17.168,5.707c3.952,-0.227 8.355,-0.757 13.317,-4.96c1.253,0.624 2.565,0.872 4.747,1.059c1.68,0.157 3.296,-0.08 4.547,-0.341c1.96,-0.416 1.824,-2.232 1.117,-2.563c-5.747,-2.677 -4.485,-1.587 -5.635,-2.469c2.923,-3.456 7.323,-7.045 9.045,-18.675c0.133,-0.925 0.019,-1.507 0,-2.253c-0.011,-0.453 0.093,-0.632 0.613,-0.683c1.443,-0.15 2.842,-0.58 4.12,-1.267c3.723,-2.035 5.227,-5.373 5.581,-9.379c0.053,-0.613 -0.011,-1.245 -0.659,-1.568l0,0.003Zm-32.445,36.048c-5.571,-4.379 -8.272,-5.821 -9.387,-5.76c-1.045,0.064 -0.856,1.256 -0.627,2.035c0.24,0.768 0.552,1.296 0.989,1.971c0.304,0.445 0.512,1.109 -0.301,1.608c-1.795,1.109 -4.912,-0.373 -5.059,-0.445c-3.629,-2.139 -6.667,-4.96 -8.803,-8.819c-2.064,-3.715 -3.264,-7.699 -3.461,-11.952c-0.053,-1.029 0.248,-1.392 1.272,-1.579c1.344,-0.257 2.722,-0.292 4.077,-0.104c5.685,0.832 10.523,3.373 14.581,7.397c2.315,2.293 4.067,5.032 5.872,7.709c1.92,2.843 3.984,5.552 6.613,7.771c0.928,0.779 1.667,1.371 2.376,1.805c-2.139,0.24 -5.707,0.293 -8.144,-1.637Zm2.667,-17.173c-0,-0.001 -0,-0.002 -0,-0.003c0,-0.448 0.368,-0.816 0.816,-0.816c0.099,0 0.198,0.018 0.291,0.054c0.323,0.116 0.538,0.425 0.533,0.768c0,0.001 0,0.002 0,0.003c0,0.448 -0.368,0.816 -0.816,0.816c-0.004,0 -0.013,-0 -0.013,-0c-0.443,0 -0.808,-0.365 -0.808,-0.808c0,-0.004 0,-0.009 0,-0.013l-0.003,0Zm8.293,4.256c-0.533,0.216 -1.064,0.403 -1.573,0.427c-0.766,0.027 -1.518,-0.213 -2.128,-0.677c-0.731,-0.613 -1.253,-0.955 -1.472,-2.021c-0.075,-0.521 -0.061,-1.052 0.043,-1.568c0.187,-0.872 -0.021,-1.432 -0.637,-1.939c-0.499,-0.416 -1.136,-0.531 -1.835,-0.531c-0.239,-0.014 -0.472,-0.085 -0.677,-0.208c-0.293,-0.144 -0.533,-0.507 -0.304,-0.955c0.075,-0.144 0.427,-0.496 0.512,-0.56c0.949,-0.539 2.045,-0.363 3.056,0.043c0.939,0.384 1.648,1.088 2.669,2.085c1.043,1.203 1.232,1.536 1.827,2.437c0.469,0.707 0.896,1.432 1.187,2.261c0.179,0.52 -0.051,0.944 -0.667,1.205Z" style="fill-rule:nonzero;"/>
    <path d="M281.326,11.2l-5.564,0l0,33.634l5.564,0l0,-33.634Zm-189.429,9.039l3.172,0l0,4.919l-3.172,0c-1.967,0 -3.952,0.489 -5.233,1.851c-1.279,1.361 -1.761,3.449 -1.761,5.536c0,2.087 0.463,4.174 1.761,5.535c1.3,1.362 3.266,1.851 5.231,1.851c1.967,0 3.952,-0.489 5.231,-1.851c1.281,-1.361 1.763,-3.449 1.763,-5.535l0,-20.221l5.564,-0l0,32.509l-5.564,0l0,-2.07l-1.021,0c-0.106,0.119 -0.217,0.234 -0.333,0.345c-1.392,1.271 -3.526,1.725 -5.621,1.725c-3.283,0 -6.566,-0.818 -8.719,-3.085c-2.149,-2.271 -2.912,-5.756 -2.912,-9.223c0,-3.467 0.78,-6.933 2.912,-9.221c2.153,-2.267 5.436,-3.068 8.701,-3.068l0,0.003Zm84.698,23.721l-3.172,0l0,-4.917l3.172,0c1.966,0 3.952,-0.491 5.229,-1.851c1.281,-1.361 1.763,-3.449 1.763,-5.536c0,-2.087 -0.463,-4.174 -1.763,-5.536c-1.298,-1.361 -3.264,-1.851 -5.229,-1.851c-1.966,0 -3.952,0.491 -5.231,1.851c-1.279,1.362 -1.763,3.449 -1.763,5.536l0,20.202l-5.564,0l0,-32.49l5.564,0l0,2.07l1.023,0c0.103,-0.116 0.211,-0.228 0.322,-0.336l0.009,-0.009c1.392,-1.271 3.526,-1.725 5.621,-1.725c3.285,0 6.566,0.816 8.719,3.085c2.151,2.271 2.912,5.755 2.912,9.221c0,3.467 -0.78,6.933 -2.912,9.22c-2.132,2.288 -5.434,3.068 -8.7,3.068l-0,-0.002Zm-44.224,-9.873l0,-1.976c0,-3.578 -0.797,-7.171 -3.04,-9.53c-2.227,-2.361 -5.658,-3.195 -9.053,-3.195c-3.394,0 -6.809,0.853 -9.051,3.195c-2.245,2.34 -3.042,5.952 -3.042,9.528c0,3.576 0.815,7.169 3.042,9.53c2.226,2.357 5.658,3.195 9.051,3.195c3.396,0 6.826,-0.855 9.053,-3.195c1.149,-1.199 1.91,-2.742 2.392,-4.448l-5.491,0c-0.163,0.22 -0.337,0.432 -0.52,0.636c-1.335,1.414 -3.394,1.924 -5.434,1.924c-2.04,0 -4.099,-0.527 -5.436,-1.924c-1.335,-1.399 -1.817,-3.576 -1.817,-5.718c0,-2.142 0.482,-4.302 1.818,-5.717c1.335,-1.416 3.394,-1.924 5.434,-1.924c2.04,0 4.099,0.508 5.436,1.924c0.927,0.979 1.446,2.323 1.669,3.756l-9.831,0l0,3.938l14.82,0Zm27.938,-1.978l0,1.978l-14.82,0l0,-3.938l9.83,0c-0.224,-1.433 -0.742,-2.777 -1.669,-3.756c-1.335,-1.416 -3.396,-1.924 -5.436,-1.924c-2.04,0 -4.099,0.508 -5.436,1.924c-1.335,1.414 -1.818,3.576 -1.818,5.717c0,2.142 0.484,4.319 1.82,5.718c1.335,1.397 3.394,1.924 5.434,1.924c2.04,0 4.099,-0.51 5.436,-1.924c0.185,-0.201 0.352,-0.418 0.518,-0.636l5.491,0c-0.482,1.707 -1.243,3.248 -2.392,4.448c-2.227,2.34 -5.658,3.195 -9.053,3.195c-3.396,0 -6.826,-0.835 -9.051,-3.195c-2.227,-2.361 -3.044,-5.954 -3.044,-9.53c0,-3.576 0.797,-7.188 3.042,-9.528c2.246,-2.342 5.658,-3.195 9.053,-3.195c3.396,0 6.826,0.834 9.051,3.195c2.246,2.357 3.044,5.952 3.044,9.528Zm52.809,10.837c-2.226,1.397 -5.656,1.888 -9.051,1.888c-3.394,0 -6.789,-0.51 -9.034,-1.889c-2.245,-1.378 -3.042,-3.519 -3.042,-5.626l6.529,0c0,0.818 0.39,1.652 1.428,2.179c1.04,0.527 2.669,0.726 4.267,0.726c1.595,0 3.208,-0.199 4.264,-0.728c1.059,-0.525 1.43,-1.359 1.43,-2.177c0,-0.815 -0.371,-1.65 -1.428,-2.177c-1.057,-0.527 -2.82,-0.726 -4.415,-0.726c-3.08,0 -6.176,-0.508 -8.199,-1.889c-2.023,-1.378 -2.746,-3.519 -2.746,-5.625c0,-2.106 0.723,-4.229 2.746,-5.626c2.023,-1.399 5.119,-1.889 8.199,-1.889c3.078,0 6.178,0.51 8.199,1.889c2.023,1.378 2.746,3.52 2.746,5.626l-5.658,0c0,-0.816 -0.352,-1.633 -1.298,-2.179c-0.946,-0.525 -2.411,-0.726 -3.858,-0.726c-1.447,0 -2.912,0.182 -3.858,0.728c-0.964,0.525 -1.3,1.361 -1.3,2.177c0,0.815 0.354,1.633 1.3,2.177c0.945,0.527 2.281,0.728 3.728,0.728c3.396,0 6.826,0.506 9.051,1.886c2.245,1.38 3.044,3.522 3.044,5.626c0,2.106 -0.816,4.229 -3.044,5.628Zm30.978,-10.837l0,1.978l-14.82,0l0,-3.938l9.831,0c-0.224,-1.433 -0.744,-2.777 -1.669,-3.756c-1.336,-1.416 -3.396,-1.924 -5.436,-1.924c-2.04,0 -4.101,0.508 -5.436,1.924c-1.335,1.414 -1.817,3.576 -1.817,5.717c0,2.142 0.482,4.319 1.817,5.718c1.335,1.397 3.396,1.924 5.434,1.924c2.042,0 4.101,-0.51 5.437,-1.924c0.184,-0.201 0.352,-0.418 0.52,-0.636l5.489,0c-0.484,1.707 -1.243,3.248 -2.392,4.448c-2.226,2.34 -5.659,3.195 -9.055,3.195c-3.392,0 -6.826,-0.835 -9.051,-3.195c-2.226,-2.361 -3.04,-5.954 -3.04,-9.53c0,-3.576 0.797,-7.188 3.04,-9.528c2.246,-2.342 5.659,-3.195 9.051,-3.195c3.397,0 6.829,0.834 9.055,3.195c2.243,2.357 3.04,5.952 3.04,9.528Zm27.936,1.978l0,-1.976c0,-3.578 -0.797,-7.171 -3.04,-9.53c-2.227,-2.361 -5.659,-3.195 -9.053,-3.195c-3.396,0 -6.809,0.853 -9.051,3.195c-2.246,2.34 -3.044,5.952 -3.044,9.528c0,3.576 0.816,7.169 3.044,9.53c2.226,2.357 5.656,3.195 9.051,3.195c3.394,0 6.826,-0.855 9.053,-3.195c1.149,-1.199 1.91,-2.742 2.392,-4.448l-5.491,0l-0.021,0.028c-0.161,0.208 -0.321,0.416 -0.499,0.607c-1.335,1.416 -3.392,1.924 -5.434,1.924c-2.04,0 -4.099,-0.525 -5.436,-1.924c-1.335,-1.397 -1.818,-3.574 -1.818,-5.717c0,-2.142 0.484,-4.302 1.818,-5.717c1.336,-1.416 3.396,-1.924 5.436,-1.924c2.042,0 4.099,0.508 5.434,1.924c0.929,0.979 1.449,2.323 1.671,3.756l-9.831,0l0,3.938l14.82,0Zm27.917,10.747l-9.124,-13.485l9.124,-10.837l-6.881,0l-9.126,10.835l9.126,13.485l6.881,0l0,0.002Z" style="fill-rule:nonzero;"/></svg>